# xmcd CD database file
#
# Track frame offsets:
#	150
#	27888
#	49455
#	71743
#	96599
#	118952
#	138615
#	154832
#	173859
#
# Disc length: 2593 seconds
#
# Revision: 0
# Processed by: cddbd v1.5.1PL0 Copyright (c) Steve Scherf et al.
# Submitted via: CDex 1.51
#
DISCID=8a0a1f09
DTITLE=Charlie DeChant Band - The Moon At noon
DYEAR=1996
DGENRE=Jazz
TTITLE0=Wind Band
TTITLE1=Cool de Sax
TTITLE2=Lizard Buffet
TTITLE3=Palermo
TTITLE4=Rock n' Roll Kitchen
TTITLE5=The Moon at Noon
TTITLE6=L.H.O.O.Q.
TTITLE7=Solstice
TTITLE8=Baobab
EXTD=YEAR: 1996
EXTT0=
EXTT1=
EXTT2=
EXTT3=
EXTT4=
EXTT5=
EXTT6=
EXTT7=
EXTT8=
PLAYORDER=
